<?xml version="1.0" encoding="utf-8"?>
<!-- Generator: Adobe Illustrator 28.3.0, SVG Export Plug-In . SVG Version: 6.00 Build 0)  -->
<svg version="1.1" id="Capa_1" xmlns="http://www.w3.org/2000/svg" xmlns:xlink="http://www.w3.org/1999/xlink" x="0px" y="0px"
	 viewBox="0 0 100 50" style="enable-background:new 0 0 100 50;" xml:space="preserve">
<style type="text/css">
	.st0{fill:none;}
	.st1{fill:#FFFFFF;}
</style>
<rect class="st0" width="100" height="50"/>
<g>
	<path d="M73.7,37.3H26.2c-0.7,0-1.2-0.6-1.2-1.2V15.6c0-0.7,0.6-1.2,1.2-1.2H65c0.5,0,1,0.3,1.1,0.8l8.7,20.4
		C75.3,36.4,74.6,37.3,73.7,37.3z"/>
	<path class="st1" d="M65.9,31.1c0,0.9-0.6,1.4-1.4,1.4c-0.7,0-1.5-0.6-1.5-1.5c0-0.9,0.6-1.4,1.4-1.4
		C65.1,29.6,65.9,30.2,65.9,31.1z"/>
	<g>
		<path class="st1" d="M35.4,32.3c-2.5,0-3.5-1.3-3.5-3.9v-8.7c0.5-0.1,1.1-0.2,1.8-0.2c0.5,0,0.7,0.2,0.7,0.5v8.4
			c0,1.4,0.3,1.8,1.2,1.8h3.9c0.3,0,0.5,0.2,0.5,0.6v1.5H35.4z"/>
	</g>
	<g>
		<path class="st1" d="M42.5,24.8c-0.2-0.3-0.3-0.7-0.3-1c0-0.6,1.5-1.5,3.5-1.5c2.7,0,4.2,1.3,4.2,3.9v3.4c0,0.7,0.2,0.9,0.7,0.9
			h0.4c0.1,0.3,0.1,0.5,0.1,0.8c0,0.5-0.6,1.1-1.6,1.1c-0.8,0-1.5-0.4-1.9-1.4c-0.6,0.9-1.6,1.5-2.9,1.5c-2,0-3.3-1.3-3.3-3.1
			c0-2,1.5-3.2,3.9-3.2c0.8,0,1.7,0.2,2.2,0.4v-0.6c0-1.2-0.7-1.8-2.4-1.8C44.1,24.2,43.3,24.4,42.5,24.8z M47.4,29.3v-1.1
			C47.1,28,46.3,28,45.7,28c-1.2,0-1.9,0.5-1.9,1.4c0,0.9,0.7,1.3,1.5,1.3C46.2,30.6,47.1,30.1,47.4,29.3z"/>
	</g>
	<g>
		<path class="st1" d="M62.1,27c0,3.2-2.1,5.5-5.1,5.5c-2.7,0-4.4-1.7-4.4-4.5v-8.9c0.5-0.1,1.1-0.2,1.7-0.2c0.5,0,0.7,0.2,0.7,0.5
			v4.4c0.7-0.8,1.8-1.4,3.1-1.4C60.3,22.3,62.1,24.1,62.1,27z M55,25.4V28c0,1.7,0.9,2.5,2.1,2.5c1.4,0,2.6-1.4,2.6-3.4
			c0-2-1-2.8-2.3-2.8C56.5,24.3,55.6,24.8,55,25.4z"/>
	</g>
</g>
</svg>
